Coordinates
version=1
nRows=19
nColumns=24
inDegrees=yes

Units are S.I. units (second, meters, Newtons, ...)
Angles are in degrees.

endheader
time	pelvis_tilt	pelvis_list	pelvis_rotation	pelvis_tx	pelvis_ty	pelvis_tz	hip_flexion_r	hip_adduction_r	hip_rotation_r	knee_angle_r	ankle_angle_r	subtalar_angle_r	mtp_angle_r	hip_flexion_l	hip_adduction_l	hip_rotation_l	knee_angle_l	ankle_angle_l	subtalar_angle_l	mtp_angle_l	lumbar_extension	lumbar_bending	lumbar_rotation
      3.69000000	     -7.23180090	     -8.10488548	    -14.50992917	     -2.76669236	      0.67393684	      0.21061607	    -17.21287818	     10.17054686	     18.09213471	     -9.44281744	     15.77568922	      6.98075499	      0.00000000	     25.68921738	     -9.63987799	     10.31581550	      5.36653427	      0.08305347	    -27.97445784	      0.00000000	    -12.80729834	      8.28419915	     10.58922579
      3.70000000	     -6.60630155	     -7.11111563	    -13.85008822	     -2.75017975	      0.67449855	      0.20955278	    -16.66546653	      9.09706415	     14.93855833	    -13.17632178	     14.91595633	      9.75051391	      0.00000000	     25.70254085	     -7.69912830	     11.40261848	      2.93519310	     -1.71441595	    -29.38726938	      0.00000000	    -12.95829904	      6.84935615	      9.64149742
      3.71000000	     -6.18685362	     -5.80959209	    -13.23917780	     -2.73368786	      0.67519043	      0.20846024	    -15.47960661	      7.71827042	     12.08218712	    -17.41922479	     13.36782099	     11.86892505	      0.00000000	     26.08535536	     -5.42378384	     12.16419576	     -0.04101182	     -3.43408377	    -30.32461038	      0.00000000	    -12.80792231	      5.11543152	      8.75416144
      3.72000000	     -5.67940276	     -4.35396294	    -12.56667405	     -2.71726237	      0.67623301	      0.20729373	    -14.09300152	      6.14205894	      9.64212426	    -21.95847339	     11.04863344	     13.19337232	      0.00000000	     26.43824679	     -2.91476459	     12.54176433	     -3.29441998	     -4.75454844	    -30.46373373	      0.00000000	    -12.80062661	      3.16770356	      7.87584377
      3.73000000	     -5.13195830	     -2.87027537	    -11.92137085	     -2.70103397	      0.67750530	      0.20618440	    -12.46683523	      4.50118994	      7.60299637	    -26.76128081	      8.14500159	     13.89102261	      0.00000000	     26.68815801	     -0.40457939	     12.51493880	     -6.54921147	     -5.54860804	    -29.87434488	      0.00000000	    -12.93471384	      1.16335637	      7.11892972
      3.74000000	     -4.88532886	     -1.50099707	    -11.38151895	     -2.68522301	      0.67855509	      0.20534406	    -10.26798961	      3.05672905	      6.11548416	    -31.74443162	      4.86996912	     13.85749061	      0.00000000	     27.18405335	      1.80877927	     11.81515350	     -9.72465529	     -5.27861162	    -28.06632587	      0.00000000	    -12.83101029	     -0.65781965	      6.50039152
      3.75000000	     -4.47208109	     -0.14844249	    -11.01146533	     -2.66970414	      0.67984186	      0.20475068	     -8.06298260	      1.55983266	      5.09802557	    -36.70992369	      1.84971069	     13.57811083	      0.00000000	     27.11674147	      3.85083805	     11.18026851	    -12.23842375	     -5.05937305	    -26.79176344	      0.00000000	    -13.00555056	     -2.52836281	      6.17254975
      3.76000000	     -4.40271483	      1.05374148	    -10.90463783	     -2.65469994	      0.68080448	      0.20457570	     -5.34529902	      0.34376351	      4.73833876	    -41.56708306	     -0.64201109	     12.77834302	      0.00000000	     27.08327986	      5.45992039	     10.28408729	    -14.16037163	     -4.33169774	    -25.51597207	      0.00000000	    -12.82455087	     -4.14743538	      6.07296994
      3.77000000	     -4.29313943	      2.23520280	    -10.81929000	     -2.64002805	      0.68179421	      0.20442208	     -2.70878356	     -0.80067794	      4.70978089	    -46.04556109	     -1.78462854	     12.00666636	      0.00000000	     26.57124261	      7.00428973	      9.82000042	    -15.27981401	     -3.77750140	    -25.10380204	      0.00000000	    -12.73166285	     -5.70716227	      5.92059872
      3.78000000	     -4.23325893	      3.39312426	    -10.75229025	     -2.62563044	      0.68281044	      0.20430623	     -0.16998255	     -1.85253570	      4.96986496	    -49.99347067	     -1.20577725	     11.50448794	      0.00000000	     25.67739110	      8.46827698	      9.64093990	    -15.60623015	     -3.21064813	    -25.07845324	      0.00000000	    -12.58337904	     -7.17077367	      5.71086396
      3.79000000	     -4.39889083	      4.49018478	    -10.80381875	     -2.61143472	      0.68368314	      0.20435820	      2.37167202	     -2.70745937	      5.65916217	    -53.28474787	      1.23581177	     11.33365964	      0.00000000	     24.61885996	      9.75981294	      9.80890481	    -15.24743075	     -2.62273031	    -25.52676563	      0.00000000	    -12.09634008	     -8.49218233	      5.68711507
      3.80000000	     -4.53032684	      5.41570637	    -10.77697255	     -2.59746059	      0.68485989	      0.20433035	      4.50456204	     -3.34045139	      6.42877447	    -55.70578257	      5.28508139	     11.38171664	      0.00000000	     23.15119141	     10.89583267	     10.36122409	    -14.27313435	     -2.32215145	    -26.40060542	      0.00000000	    -11.73025794	     -9.54752655	      5.45525361
      3.81000000	     -4.59213704	      6.00469728	    -10.68795477	     -2.58357783	      0.68653721	      0.20431632	      6.11268584	     -3.56820290	      7.31636171	    -57.11542872	     10.37420652	     11.57056554	      0.00000000	     21.23660622	     11.69194111	     11.42504534	    -12.80730007	     -2.27100859	    -27.59801711	      0.00000000	    -11.53126535	    -10.17678792	      5.10932547
      3.82000000	     -4.65998707	      6.17121181	    -10.45296903	     -2.56977835	      0.68867815	      0.20426486	      7.33979313	     -3.31305736	      8.13439930	    -57.57720171	     15.69228879	     11.59385571	      0.00000000	     19.09879725	     12.03931440	     12.69331534	    -11.12911430	     -2.18289723	    -28.58674424	      0.00000000	    -11.44746324	    -10.27503306	      4.57935029
      3.83000000	     -4.67113956	      4.68907504	    -10.07766820	     -2.55604339	      0.69312453	      0.20334117	     12.91585107	     -1.96716815	      5.62209541	    -62.68618758	      8.84304708	      6.73415618	      0.00000000	     16.48191526	     10.74789863	     14.58258646	     -9.38647095	     -2.17551178	    -29.39662371	      0.00000000	    -11.91038207	     -8.20094776	      4.30966278
      3.84000000	     -4.94000326	      4.27226534	     -9.66417409	     -2.54252249	      0.69532023	      0.20315145	     15.39481541	     -1.15181048	      5.27129015	    -63.42528868	     10.65968209	      4.34377827	      0.00000000	     14.45659341	     10.36650097	     16.18250011	     -7.68608394	     -2.50724763	    -30.58998285	      0.00000000	    -11.73408778	     -7.52806679	      3.72184745
      3.85000000	     -5.19097552	      3.57762647	     -9.26892725	     -2.52912781	      0.69756714	      0.20310443	     17.68611067	     -0.01439001	      4.87922489	    -63.52690460	     12.01369063	      1.69892704	      0.00000000	     12.51771474	      9.64584739	     17.27825552	     -6.19268570	     -2.28703111	    -30.94621838	      0.00000000	    -11.63247854	     -6.53367774	      3.28370904
      3.86000000	     -5.38773828	      2.76758355	     -8.61973389	     -2.51568449	      0.69962286	      0.20279362	     19.76707083	      1.08254509	      4.13467218	    -63.10777406	     13.06660821	     -0.78487315	      0.00000000	     10.50285621	      8.81098560	     19.06889078	     -4.68142994	     -2.77949026	    -32.27252647	      0.00000000	    -11.61470268	     -5.41562862	      2.60926132
      3.87000000	     -5.64470204	      1.94971097	     -8.02137329	     -2.50246500	      0.70130046	      0.20266222	     21.86207148	      2.22406784	      3.47430619	    -62.26134089	     13.64070661	     -3.41304753	      0.00000000	      8.76165363	      7.92156207	     20.29614581	     -3.43584315	     -2.72845699	    -32.83496138	      0.00000000	    -11.53653232	     -4.32245209	      1.98423715
